<?xml version="1.0" standalone="no"?>
<!DOCTYPE svg PUBLIC "-//W3C//DTD SVG 20010904//EN"
 "http://www.w3.org/TR/2001/REC-SVG-20010904/DTD/svg10.dtd">
<svg version="1.0" xmlns="http://www.w3.org/2000/svg"
 width="595.000000pt" height="595.000000pt" viewBox="0 0 595.000000 595.000000"
 preserveAspectRatio="xMidYMid meet">
<metadata>
Created by potrace 1.11, written by Peter Selinger 2001-2013
</metadata>
<g transform="translate(0.000000,595.000000) scale(0.100000,-0.100000)"
fill="#000000" stroke="none">
<path d="M1255 5283 c-38 -8 -80 -16 -93 -19 -64 -13 -272 -82 -425 -140 -94
-35 -179 -67 -187 -69 -8 -3 -91 -31 -185 -62 -93 -32 -201 -67 -238 -77 -145
-40 -169 -130 -61 -226 76 -66 107 -73 334 -77 113 -2 220 -8 238 -14 46 -15
99 -63 111 -102 15 -46 19 -119 10 -180 -13 -79 -111 -423 -174 -607 -14 -41
-27 -79 -29 -85 -2 -5 -6 -17 -9 -25 -13 -32 -118 -326 -122 -340 -2 -8 -11
-35 -20 -60 -64 -177 -95 -350 -92 -520 2 -133 10 -166 54 -240 2 -3 -24 -36
-58 -75 -110 -128 -185 -260 -238 -422 -96 -293 -85 -720 24 -934 45 -87 130
-160 243 -208 142 -59 304 -14 423 119 54 60 128 165 129 182 0 16 53 84 70
90 31 11 42 -17 47 -115 8 -175 59 -269 188 -352 71 -46 139 -67 225 -70 130
-4 224 29 300 105 76 75 114 182 91 253 -16 48 -60 89 -159 149 -144 87 -222
189 -255 333 -18 79 -13 374 8 487 17 86 23 382 11 538 -18 236 -56 438 -98
511 -44 78 -126 99 -176 46 -72 -76 -89 -240 -46 -447 32 -155 39 -210 38
-310 0 -75 -9 -201 -19 -263 -2 -12 -6 -47 -10 -77 -4 -30 -9 -64 -11 -75 -2
-11 -6 -42 -9 -69 -7 -53 -9 -65 -25 -143 -18 -83 -40 -91 -150 -53 -87 30
-193 32 -240 4 -19 -11 -49 -42 -67 -69 -71 -113 -109 -145 -148 -127 -40 18
-51 104 -31 247 4 28 7 52 6 55 -3 12 65 189 86 226 45 77 86 75 174 -10 85
-83 144 -92 225 -36 82 56 115 116 115 205 0 65 -18 110 -74 193 l-54 78 35
24 c86 59 107 159 66 315 -51 193 -27 431 70 698 48 132 145 259 261 341 107
77 331 178 350 159 10 -10 7 -70 -5 -100 -28 -73 -45 -193 -43 -304 2 -136 7
-169 35 -251 85 -246 295 -330 589 -237 198 63 349 175 471 349 23 33 49 62
59 65 27 8 61 -9 103 -54 22 -22 69 -55 105 -73 64 -32 72 -33 182 -33 129 0
205 17 335 72 88 38 119 37 129 -3 6 -23 0 -116 -9 -154 -2 -8 -7 -46 -11 -85
-3 -38 -8 -73 -11 -77 -2 -4 -6 -86 -8 -183 -6 -231 -14 -248 -130 -308 -91
-47 -102 -57 -174 -155 -88 -119 -116 -110 -145 47 -18 94 -25 166 -30 295 -3
71 -7 92 -23 108 -59 58 -183 -76 -216 -235 -14 -66 -15 -130 -1 -342 16 -270
6 -372 -39 -396 -16 -9 -23 -8 -33 6 -15 20 -40 101 -48 157 -3 21 -9 55 -12
75 -19 127 -72 299 -125 404 -41 82 -143 214 -180 231 -52 26 -98 -1 -101 -58
-1 -29 9 -159 17 -218 2 -17 7 -58 10 -91 3 -33 7 -76 10 -95 8 -68 15 -126
20 -190 3 -36 7 -90 10 -120 8 -95 14 -172 20 -260 18 -265 64 -383 171 -446
60 -35 139 -31 199 9 62 42 148 131 212 220 83 116 108 140 131 128 10 -5 33
-39 51 -75 81 -165 227 -252 372 -221 32 7 84 30 169 74 27 15 41 16 65 9 100
-33 100 -33 160 -8 32 13 75 40 95 59 l37 36 1 600 c0 487 3 623 15 720 9 66
19 145 22 175 10 93 16 144 20 170 10 65 45 300 50 340 14 102 16 117 26 170
16 88 58 216 79 243 42 53 118 28 121 -40 2 -33 2 -32 23 -188 9 -66 22 -144
28 -173 9 -41 9 -61 -1 -88 -19 -54 -23 -131 -7 -169 22 -53 62 -72 138 -66
26 2 86 68 99 110 15 48 22 54 66 58 54 4 139 31 203 63 66 33 155 101 170
131 19 34 3 78 -33 93 -33 13 -51 13 -179 1 -92 -9 -118 2 -135 60 -13 41 -10
161 5 236 14 74 14 190 -1 240 -17 55 -13 99 12 154 80 175 103 255 107 378 5
130 -21 203 -100 283 -79 78 -207 139 -336 160 -19 3 -38 8 -41 10 -26 16
-352 24 -444 11 -92 -12 -119 -18 -360 -78 -186 -46 -244 -64 -257 -80 -10
-12 -18 -26 -18 -32 0 -19 98 -105 147 -130 54 -27 90 -35 212 -42 46 -3 96
-12 110 -20 46 -23 61 -81 56 -204 -7 -180 -28 -262 -68 -267 -10 -1 -49 25
-90 62 -137 124 -260 174 -417 171 -81 -2 -103 -6 -151 -30 -103 -50 -170
-127 -248 -283 -27 -56 -61 -111 -76 -122 -34 -27 -59 -19 -155 45 -92 62
-159 87 -272 102 -48 6 -108 21 -135 33 -63 28 -153 32 -218 9 -27 -9 -57 -16
-65 -15 -8 0 -21 2 -29 2 -11 2 -13 19 -7 95 3 50 9 117 13 147 10 72 10 209
0 288 -10 83 -41 149 -116 250 -70 94 -146 150 -245 181 -75 23 -257 25 -361
4z m326 -330 c72 -72 56 -379 -28 -553 -48 -100 -188 -217 -242 -203 -11 3
-22 8 -22 12 -7 32 -2 77 14 136 10 39 27 102 37 140 10 39 21 104 25 145 3
41 8 86 10 100 2 14 7 56 10 94 7 84 24 118 67 140 40 20 103 15 129 -11z
m2944 -75 c37 -44 36 -106 -2 -217 -57 -167 -163 -301 -237 -301 -48 0 -58 52
-33 170 9 41 19 88 21 104 31 180 72 253 151 274 44 12 72 3 100 -30z m-1051
-609 c88 -41 79 -285 -20 -498 -62 -134 -139 -216 -214 -227 -39 -7 -79 32
-82 78 -4 99 -2 161 10 228 16 94 86 296 122 353 42 67 120 95 184 66z m-1042
-195 c38 -35 61 -103 60 -178 -1 -74 -2 -82 -22 -156 -66 -254 -200 -457 -294
-448 -25 2 -35 11 -51 43 -38 78 -18 309 42 485 26 74 94 214 116 237 42 43
111 51 149 17z m1274 -1942 c3 -300 -38 -421 -150 -439 -26 -4 -38 0 -55 18
-31 34 -39 73 -36 169 5 126 21 185 87 313 50 96 72 125 101 129 47 8 52 -10
53 -190z"/>
<path d="M5375 3306 c-33 -12 -141 -71 -240 -130 -227 -136 -309 -213 -379
-358 -49 -101 -99 -269 -115 -388 -6 -41 -13 -95 -17 -120 -21 -149 -5 -339
35 -418 38 -75 85 -101 178 -101 33 0 86 -7 117 -16 120 -35 224 1 361 126 41
38 83 69 93 69 9 0 29 -8 43 -18 153 -103 174 -112 251 -112 59 0 210 61 233
94 23 32 18 80 -10 115 -14 16 -54 48 -90 70 -85 54 -125 108 -140 189 -8 45
-45 190 -82 322 -19 69 -41 148 -48 175 -8 28 -21 77 -30 110 -15 59 -20 148
-11 193 3 13 14 40 25 60 57 105 59 136 14 153 -41 15 -125 9 -188 -15z m-276
-580 c14 -17 29 -67 36 -121 3 -22 8 -56 10 -75 23 -171 23 -235 -3 -293 -47
-105 -165 -152 -215 -85 -33 44 -25 197 18 345 10 32 18 63 20 68 1 6 5 17 8
25 3 8 11 32 17 53 23 74 80 118 109 83z"/>
<path d="M4531 3079 c-86 -18 -131 -81 -176 -244 -19 -71 -37 -139 -39 -150
-2 -11 -9 -38 -14 -60 -18 -67 -51 -239 -57 -299 -4 -32 -9 -67 -11 -79 -10
-42 -13 -612 -4 -677 5 -36 12 -82 15 -103 13 -97 79 -232 125 -257 49 -26
116 -5 168 54 57 65 74 197 41 321 -21 78 -21 77 -43 195 -23 119 -29 189 -29
390 0 171 3 217 24 350 15 101 15 100 54 257 65 262 54 325 -54 302z"/>
<path d="M2108 2716 c-69 -24 -98 -55 -146 -157 -35 -73 -60 -91 -140 -103
-132 -20 -218 -120 -286 -331 -59 -183 -83 -379 -64 -520 16 -122 19 -137 38
-179 20 -49 50 -81 113 -124 86 -60 148 -73 258 -58 59 8 100 -4 129 -39 20
-24 82 -54 138 -65 115 -25 366 -16 388 14 17 24 3 60 -41 106 -48 51 -101
139 -124 208 -42 124 -73 359 -86 657 -3 66 -7 140 -10 165 -2 25 -7 74 -10
110 -4 36 -8 76 -10 90 -2 14 -6 45 -9 70 -8 63 -14 91 -27 123 -6 15 -12 27
-13 27 -1 0 -15 4 -32 9 -20 6 -43 4 -66 -3z m-220 -538 c12 -15 20 -75 27
-200 6 -101 11 -136 32 -233 33 -153 22 -227 -35 -242 -41 -11 -44 -11 -84 9
-48 23 -78 66 -95 138 -2 8 -6 65 -8 125 -6 171 37 364 88 400 26 18 61 19 75
3z"/>
</g>
</svg>
